<svg width="65" height="38" viewBox="0 0 65 38" fill="none" xmlns="http://www.w3.org/2000/svg">
<path d="M27.52 2.24C27.3333 2.45333 27.0533 2.70667 26.68 3C26.3067 3.29333 25.8933 3.44 25.44 3.44C25.2 3.44 24.96 3.4 24.72 3.32C24.5067 3.24 24.32 3.17333 24.16 3.12C23.7333 2.98667 23.3067 2.86667 22.88 2.76C22.4533 2.65333 21.9733 2.57333 21.44 2.52C20.5333 2.38666 19.7467 2.22667 19.08 2.04C18.44 1.82667 17.5733 1.72 16.48 1.72C15.2 1.72 14.04 1.88 13 2.2C11.9867 2.52 11.1733 3.04 10.56 3.76C9.97333 4.48 9.68 5.45333 9.68 6.68C9.68 7.34667 9.74667 8.01333 9.88 8.68C10.0133 9.32 10.4 9.64 11.04 9.64C11.6 9.64 12.0133 9.64 12.28 9.64C12.5467 9.64 12.76 9.56 12.92 9.4C13.08 9.24 13.2667 8.93333 13.48 8.48C13.5867 8.26667 13.6667 8.01333 13.72 7.72C13.8 7.42667 13.84 7.14667 13.84 6.88C13.84 6.50667 13.7733 6.14667 13.64 5.8C13.5867 5.64 13.56 5.50667 13.56 5.4C13.56 5.18667 13.6 5 13.68 4.84C13.7867 4.68 13.8933 4.6 14 4.6C14.1067 4.6 14.2 4.69333 14.28 4.88C14.4667 5.30667 14.5867 5.64 14.64 5.88C14.6933 6.12 14.72 6.34666 14.72 6.56C14.7467 6.74667 14.76 7.02667 14.76 7.4C14.76 8.46667 14.4267 9.24 13.76 9.72C13.12 10.2 12.2133 10.44 11.04 10.44C10.1333 10.44 9.36 10.08 8.72 9.36C8.08 8.61333 7.76 7.74667 7.76 6.76C7.76 5.32 8.16 4.17333 8.96 3.32C9.78667 2.44 10.8533 1.81333 12.16 1.44C13.4933 1.06666 14.8933 0.879998 16.36 0.879998C17.5067 0.879998 18.4533 0.999998 19.2 1.24C19.9733 1.45333 20.84 1.62667 21.8 1.76C22.36 1.81333 22.8267 1.84 23.2 1.84C23.5733 1.81333 24 1.88 24.48 2.04C24.64 2.09333 24.8667 2.21333 25.16 2.4C25.4533 2.58667 25.6933 2.68 25.88 2.68C26.1467 2.68 26.3333 2.58667 26.44 2.4C26.5733 2.18667 26.6933 2.02667 26.8 1.92C27.0133 1.68 27.2133 1.56 27.4 1.56C27.5867 1.56 27.68 1.65333 27.68 1.84C27.68 1.97333 27.6267 2.10667 27.52 2.24ZM21.84 22.28C21.68 23.1867 21.56 23.9067 21.48 24.44C21.4 24.9733 21.32 25.4267 21.24 25.8C21.16 26.1733 21.04 26.5733 20.88 27C20.7467 27.4533 20.56 28.0267 20.32 28.72C20.0267 29.5467 19.6933 30.2933 19.32 30.96C18.9467 31.6533 18.48 32.2667 17.92 32.8C17.28 33.44 16.4133 34.16 15.32 34.96C14.2533 35.76 13.0933 36.4533 11.84 37.04C10.5867 37.6267 9.33333 37.92 8.08 37.92C7.25333 37.92 6.58667 37.7867 6.08 37.52C5.57333 37.28 5.01333 37.08 4.4 36.92C2.85333 36.5467 1.74667 35.8 1.08 34.68C0.413333 33.5867 0.08 32.0667 0.08 30.12C0.08 28.8933 0.226667 27.8667 0.52 27.04C0.84 26.2133 1.26667 25.4933 1.8 24.88C2.33333 24.24 2.93333 23.64 3.6 23.08C4.21333 22.5467 4.84 22.04 5.48 21.56C6.12 21.0533 6.98667 20.8 8.08 20.8C8.93333 20.8 9.61333 21.08 10.12 21.64C10.6267 22.1733 10.9867 22.8533 11.2 23.68C11.4133 24.48 11.52 25.2933 11.52 26.12C11.52 27.1867 11.2933 27.9867 10.84 28.52C10.4133 29.0533 9.70667 29.32 8.72 29.32C7.73333 29.32 7.13333 28.88 6.92 28C6.84 27.76 6.88 27.56 7.04 27.4C7.2 27.2667 7.37333 27.2 7.56 27.2C7.88 27.2 8.08 27.3733 8.16 27.72V27.84C8.16 27.9467 8.14667 28.04 8.12 28.12C8.12 28.2267 8.17333 28.28 8.28 28.28C8.89333 28.28 9.36 28.0667 9.68 27.64C10.0267 27.24 10.2 26.7333 10.2 26.12C10.2 25.2667 10.0667 24.6533 9.8 24.28C9.56 23.9067 8.98667 23.72 8.08 23.72C7.49333 23.72 7.04 23.7733 6.72 23.88C6.42667 23.96 6.16 24.1067 5.92 24.32C5.70667 24.5067 5.42667 24.7467 5.08 25.04C4.54667 25.4933 3.98667 25.9067 3.4 26.28C2.84 26.6533 2.36 27.12 1.96 27.68C1.58667 28.2667 1.4 29.08 1.4 30.12C1.4 31.6667 1.64 32.88 2.12 33.76C2.62667 34.64 3.49333 35.2667 4.72 35.64C5.28 35.8 5.78667 36 6.24 36.24C6.69333 36.48 7.30667 36.6 8.08 36.6C9.22667 36.6 10.36 36.32 11.48 35.76C12.6267 35.2267 13.68 34.5867 14.64 33.84C15.6 33.0933 16.3733 32.44 16.96 31.88C17.4933 31.3733 17.9067 30.8267 18.2 30.24C18.52 29.6533 18.8133 29 19.08 28.28C19.32 27.5867 19.4933 27 19.6 26.52C19.7333 26.0133 19.8267 25.5333 19.88 25.08C19.96 24.6 20.04 24.0667 20.12 23.48C20.2 22.8933 20.3067 22.16 20.44 21.28L19.92 17.72L17.48 6.92C17.5333 6.09333 17.5867 5.36 17.64 4.72C17.72 4.08 18.0267 3.57333 18.56 3.2C18.7733 3.06667 19.04 3.10667 19.36 3.32C19.7067 3.50667 20.0133 3.77333 20.28 4.12C20.5467 4.44 20.68 4.72 20.68 4.96C20.68 5.04 20.6267 5.13333 20.52 5.24C20.12 5.50667 19.9333 5.86667 19.96 6.32C19.9867 6.74667 19.9733 7.26667 19.92 7.88L21.4 17.68L21.84 22.28ZM64.1934 26.36C64.3534 26.3867 64.4334 26.4667 64.4334 26.6C64.4334 26.7067 64.3534 26.84 64.1934 27C64.0601 27.1867 63.9134 27.3867 63.7534 27.6C63.2201 28.3467 62.6068 28.8667 61.9134 29.16C61.2201 29.48 60.5801 29.64 59.9934 29.64C59.4334 29.64 58.9668 29.5333 58.5934 29.32C58.3268 29.1333 58.0068 28.84 57.6334 28.44C57.2868 28.0667 56.9801 27.5733 56.7134 26.96C56.4734 26.3467 56.3801 25.6267 56.4334 24.8C56.4868 23.92 56.6068 22.9067 56.7934 21.76C56.9801 20.5867 57.1934 19.4 57.4334 18.2C57.6734 17 57.8868 15.8933 58.0734 14.88C58.2868 13.84 58.4334 13.0267 58.5134 12.44C58.6201 11.6133 58.4068 11.2 57.8734 11.2C57.4734 11.2 56.9934 11.4533 56.4334 11.96C56.0068 12.5467 55.4468 13.2933 54.7534 14.2C54.0868 15.1067 53.4068 16.4667 52.7134 18.28C52.4201 19.08 52.0868 19.9733 51.7134 20.96C51.3401 21.92 51.0868 23.0667 50.9534 24.4C50.9268 24.5867 50.9268 24.7867 50.9534 25C51.0068 25.2133 51.0334 25.4267 51.0334 25.64C51.0334 25.9067 50.9668 26.1467 50.8334 26.36C50.5934 26.7067 50.3134 26.9467 49.9934 27.08C49.8868 27.1067 49.7801 27.1333 49.6734 27.16C49.5934 27.1867 49.5134 27.2 49.4334 27.2C49.3001 27.2 49.1801 27.1333 49.0734 27C48.8868 26.7867 48.7934 26.4533 48.7934 26C48.7934 25.5467 48.8468 25.08 48.9534 24.6C49.0868 24.0933 49.1801 23.6267 49.2334 23.2C49.3668 22.2133 49.5001 21.1733 49.6334 20.08C49.7934 18.96 49.8734 17.7467 49.8734 16.44C49.8734 15.56 49.8201 14.64 49.7134 13.68C49.6334 12.6933 49.4868 11.6267 49.2734 10.48C49.1668 9.94667 49.0734 9.45333 48.9934 9C48.9134 8.54667 48.6468 8.17333 48.1934 7.88C47.8734 7.66667 47.5801 7.84 47.3134 8.4C47.0468 8.96 46.8068 9.78667 46.5934 10.88C46.4068 11.9733 46.2201 13.24 46.0334 14.68C45.8468 16.0933 45.6734 17.56 45.5134 19.08C45.2468 21.3467 45.0201 23.4 44.8334 25.24C44.6734 27.08 44.5534 28.4133 44.4734 29.24C44.4468 29.6133 44.1934 29.92 43.7134 30.16C43.2601 30.4267 42.7801 30.6133 42.2734 30.72C41.7934 30.8533 41.4601 30.92 41.2734 30.92C41.0601 30.92 40.9534 30.76 40.9534 30.44C40.9534 30.1467 41.0068 29.8133 41.1134 29.44C41.2468 29.0933 41.3401 28.8133 41.3934 28.6C41.9534 26.9733 42.3401 25.4267 42.5534 23.96C42.7934 22.4667 42.9134 21.04 42.9134 19.68C42.9134 18.2667 42.8201 16.92 42.6334 15.64C42.4468 14.36 42.2201 13.1467 41.9534 12C41.6601 10.6933 41.0734 9.42667 40.1934 8.2C39.3134 6.94667 38.2201 5.92 36.9134 5.12C35.6068 4.29333 34.1534 3.88 32.5534 3.88C31.5401 3.88 30.5534 4.05333 29.5934 4.4C28.6334 4.72 27.6734 5.26667 26.7134 6.04C25.7534 6.81333 24.9534 7.81333 24.3134 9.04C23.6734 10.2667 23.3534 11.72 23.3534 13.4C23.3534 14.9467 23.6868 16.64 24.3534 18.48C24.6734 19.3067 25.2201 20.0533 25.9934 20.72C26.7668 21.3867 27.6068 21.92 28.5134 22.32C29.4201 22.72 30.2201 22.92 30.9134 22.92C31.2334 22.92 31.4868 22.88 31.6734 22.8C32.7668 22.4 33.5668 21.76 34.0734 20.88C34.5801 20 34.8334 19.1067 34.8334 18.2C34.8334 17.4 34.6468 16.6533 34.2734 15.96C33.9268 15.24 33.4068 14.7067 32.7134 14.36C32.3668 14.2 32.1934 13.9733 32.1934 13.68C32.1934 13.3333 32.4601 13.16 32.9934 13.16C33.3668 13.16 33.7801 13.2667 34.2334 13.48C34.7668 13.6933 35.2734 14.12 35.7534 14.76C36.2334 15.4 36.5801 16.12 36.7934 16.92C36.8468 17.1067 36.8868 17.3067 36.9134 17.52C36.9401 17.7333 36.9534 17.9467 36.9534 18.16C36.9534 19.0667 36.7401 19.9467 36.3134 20.8C35.9134 21.6533 35.4201 22.4 34.8334 23.04C34.2734 23.6533 33.7401 24.0533 33.2334 24.24C32.7001 24.4267 32.1001 24.52 31.4334 24.52C30.3934 24.52 29.3268 24.2933 28.2334 23.84C27.1401 23.36 26.1401 22.6933 25.2334 21.84C24.3534 20.96 23.7001 19.9467 23.2734 18.8C22.9001 17.7333 22.6334 16.7333 22.4734 15.8C22.2868 14.8667 22.1934 14 22.1934 13.2C22.1934 11.3067 22.5668 9.70667 23.3134 8.4C24.0601 7.09333 24.9801 6.04 26.0734 5.24C27.1668 4.41333 28.2334 3.81333 29.2734 3.44C29.9401 3.2 30.5668 3.02666 31.1534 2.92C31.7668 2.81333 32.3534 2.76 32.9134 2.76C34.2201 2.76 35.4068 3.02667 36.4734 3.56C37.5401 4.06667 38.4868 4.73333 39.3134 5.56C40.1401 6.38667 40.8601 7.29333 41.4734 8.28C42.0868 9.24 42.6068 10.2 43.0334 11.16C43.4601 12.0933 43.8068 12.9067 44.0734 13.6C44.1801 14.0267 44.2868 14.3867 44.3934 14.68C44.5001 14.9733 44.6068 15.12 44.7134 15.12C44.8734 15.12 44.9668 14.7067 44.9934 13.88C45.0201 12.84 45.2068 11.76 45.5534 10.64C45.9268 9.52 46.2734 8.46667 46.5934 7.48C46.8068 7.02667 47.0601 6.69333 47.3534 6.48C47.6734 6.26667 47.9934 6.16 48.3134 6.16C48.7401 6.16 49.0868 6.32 49.3534 6.64C50.2334 7.57333 50.7801 8.42667 50.9934 9.2C51.2334 9.97333 51.3668 10.9067 51.3934 12C51.4201 12.8533 51.4734 13.6133 51.5534 14.28C51.6601 14.92 51.7934 15.3867 51.9534 15.68C52.5401 14.8267 53.1134 13.9867 53.6734 13.16C54.2601 12.3333 54.8201 11.6267 55.3534 11.04C55.8868 10.4267 56.3401 10.0533 56.7134 9.92C57.0334 9.81333 57.3401 9.76 57.6334 9.76C58.1668 9.76 58.5934 9.89333 58.9134 10.16C59.2334 10.4267 59.4734 10.7067 59.6334 11C59.8201 11.2933 59.9268 11.4667 59.9534 11.52C60.1401 12 60.2334 12.56 60.2334 13.2C60.2334 14.0533 60.0868 14.9467 59.7934 15.88C59.5268 16.8133 59.2201 17.7467 58.8734 18.68C58.5268 19.6133 58.2068 20.5067 57.9134 21.36C57.6468 22.1867 57.5134 22.9333 57.5134 23.6C57.5134 24.9333 57.5668 25.96 57.6734 26.68C57.8068 27.3733 57.9801 27.84 58.1934 28.08C58.4334 28.3467 58.7134 28.48 59.0334 28.48C59.3801 28.48 59.7534 28.4 60.1534 28.24C60.5801 28.1067 61.0468 28.0267 61.5534 28C61.9801 27.9733 62.3534 27.8133 62.6734 27.52C62.9934 27.2533 63.2734 26.9867 63.5134 26.72C63.7801 26.4533 64.0068 26.3333 64.1934 26.36Z" fill="white"/>
</svg>
